<svg width="21" height="17" viewBox="0 0 21 17" fill="none" xmlns="http://www.w3.org/2000/svg">
<path d="M7.5 0.960054C8.47004 0.651862 9.48218 0.496668 10.5 0.500054C14.682 0.500054 17.528 3.00005 19.225 5.20405C20.075 6.31005 20.5 6.86105 20.5 8.50005C20.5 10.1401 20.075 10.6911 19.225 11.7961C17.528 14.0001 14.682 16.5001 10.5 16.5001C6.318 16.5001 3.472 14.0001 1.775 11.7961C0.925 10.6921 0.5 10.1391 0.5 8.50005C0.5 6.86005 0.925 6.30905 1.775 5.20405C2.18095 4.13523 6.75126 1.16028 7.5 1" stroke="#555555" stroke-linecap="round"/>
<path d="M13.5 8.50006C13.5 9.29571 13.1839 10.0588 12.6213 10.6214C12.0587 11.184 11.2956 11.5001 10.5 11.5001C9.70435 11.5001 8.94129 11.184 8.37868 10.6214C7.81607 10.0588 7.5 9.29571 7.5 8.50006C7.5 7.70441 7.81607 6.94135 8.37868 6.37874C8.94129 5.81613 9.70435 5.50006 10.5 5.50006C11.2956 5.50006 12.0587 5.81613 12.6213 6.37874C13.1839 6.94135 13.5 7.70441 13.5 8.50006Z" stroke="#555555"/>
</svg>
